<svg width="32" height="32" viewBox="0 0 32 32" fill="none" xmlns="http://www.w3.org/2000/svg">
<path fill-rule="evenodd" clip-rule="evenodd" d="M15.9999 3.32129C8.82119 3.32129 3 9.14119 3 16.3212C3 22.0651 6.72487 26.9378 11.8901 28.657C12.5396 28.7775 12.7781 28.375 12.7781 28.0316C12.7781 27.7216 12.7661 26.6975 12.7605 25.6113C9.14389 26.3977 8.38074 24.0775 8.38074 24.0775C7.78939 22.5749 6.93734 22.1753 6.93734 22.1753C5.75764 21.3685 7.02625 21.3853 7.02625 21.3853C8.33145 21.4767 9.01903 22.7249 9.01903 22.7249C10.1785 24.7119 12.0602 24.1375 12.802 23.8056C12.9187 22.9654 13.2556 22.3917 13.6274 22.067C10.7399 21.7387 7.70436 20.6238 7.70436 15.6426C7.70436 14.2233 8.2124 13.0637 9.044 12.1531C8.90881 11.8259 8.46384 10.5036 9.16972 8.71301C9.16972 8.71301 10.2612 8.36362 12.7454 10.0455C13.7826 9.7573 14.8949 9.61242 15.9999 9.60747C17.1042 9.61242 18.2172 9.75687 19.2563 10.0451C21.7376 8.36319 22.8277 8.71258 22.8277 8.71258C23.5353 10.503 23.0903 11.8254 22.9554 12.1526C23.7889 13.0632 24.2933 14.2229 24.2933 15.6422C24.2933 20.6352 21.2521 21.7344 18.3573 22.0565C18.8238 22.4599 19.2393 23.2512 19.2393 24.4639C19.2393 26.2033 19.2242 27.6032 19.2242 28.0314C19.2242 28.3773 19.4585 28.7827 20.1172 28.655C25.2794 26.9341 29 22.0629 29 16.3212C28.9998 9.14162 23.1792 3.32129 15.9999 3.32129Z" fill="#E2E4E9"/>
<path d="M7.92372 21.9861C7.89509 22.0507 7.79348 22.07 7.70091 22.0259C7.60619 21.9837 7.55345 21.8957 7.58402 21.8309C7.612 21.7641 7.71383 21.7458 7.8079 21.7904C7.90262 21.8328 7.95666 21.9215 7.92372 21.9861ZM8.45028 22.5736C8.38849 22.631 8.26729 22.6043 8.18506 22.5133C8.09981 22.4229 8.08388 22.3017 8.14696 22.2433C8.21111 22.1861 8.32865 22.2132 8.41389 22.3036C8.49871 22.3953 8.51529 22.5152 8.45028 22.5736ZM8.96306 23.3221C8.8834 23.3776 8.75295 23.3257 8.67244 23.2101C8.59279 23.0943 8.59279 22.9555 8.67459 22.9001C8.75489 22.8446 8.88341 22.8948 8.96521 23.0093C9.04443 23.1266 9.04443 23.2657 8.96306 23.3221ZM9.66506 24.0456C9.59402 24.1242 9.44204 24.1031 9.33096 23.9961C9.21751 23.8912 9.18586 23.7421 9.25712 23.6637C9.32945 23.5849 9.48208 23.6069 9.59381 23.7132C9.70725 23.8178 9.74105 23.9675 9.66506 24.0456ZM10.6338 24.4656C10.6021 24.5674 10.4562 24.6137 10.3087 24.5702C10.1617 24.5257 10.0655 24.4066 10.0956 24.3037C10.1257 24.201 10.2728 24.153 10.4211 24.1993C10.5681 24.2436 10.6644 24.362 10.6338 24.4656ZM11.6979 24.5433C11.7015 24.6505 11.5767 24.7392 11.4223 24.7414C11.2667 24.745 11.1408 24.6581 11.1392 24.5526C11.1392 24.4443 11.2615 24.3567 11.417 24.3537C11.5713 24.3509 11.6979 24.4372 11.6979 24.5433ZM12.6877 24.375C12.7062 24.4794 12.5988 24.5868 12.4453 24.6154C12.2946 24.6434 12.1547 24.5784 12.1353 24.4749C12.1168 24.3676 12.2262 24.2602 12.3769 24.2325C12.5306 24.206 12.6683 24.2688 12.6877 24.375Z" fill="#E2E4E9"/>
</svg>
