<svg width="48" height="48" viewBox="0 0 48 48" fill="none" xmlns="http://www.w3.org/2000/svg">
<path d="M46.4999 23.9998C46.5 26.0766 45.8843 28.1068 44.7306 29.8337C43.5768 31.5605 41.9369 32.9065 40.0182 33.7012C38.0994 34.496 35.9881 34.704 33.9512 34.2987C31.9143 33.8935 30.0433 32.8934 28.5749 31.4248L28.513 31.3592L17.2724 18.6654C16.22 17.6253 14.8835 16.9198 13.4311 16.6375C11.9787 16.3553 10.4752 16.5089 9.10987 17.0792C7.74456 17.6494 6.57842 18.6107 5.75821 19.8422C4.93799 21.0736 4.50034 22.5202 4.50034 23.9998C4.50034 25.4794 4.93799 26.9259 5.75821 28.1574C6.57842 29.3889 7.74456 30.3502 9.10987 30.9204C10.4752 31.4907 11.9787 31.6443 13.4311 31.3621C14.8835 31.0798 16.22 30.3742 17.2724 29.3342L18.8699 27.5304C19.0005 27.3827 19.159 27.2621 19.3362 27.1756C19.5134 27.0891 19.7059 27.0384 19.9027 27.0263C20.0996 27.0142 20.2969 27.0409 20.4833 27.1051C20.6698 27.1692 20.8418 27.2695 20.9896 27.4001C21.1373 27.5307 21.2579 27.6892 21.3444 27.8664C21.4309 28.0436 21.4816 28.2361 21.4937 28.433C21.5058 28.6298 21.479 28.8271 21.4149 29.0136C21.3508 29.2 21.2505 29.3721 21.1199 29.5198L19.4905 31.3592L19.4286 31.4248C17.9601 32.8931 16.0892 33.8931 14.0524 34.2981C12.0157 34.7032 9.90453 34.4952 7.98597 33.7004C6.06741 32.9057 4.4276 31.5599 3.27389 29.8332C2.12018 28.1065 1.50439 26.0764 1.50439 23.9998C1.50439 21.9231 2.12018 19.8931 3.27389 18.1664C4.4276 16.4397 6.06741 15.0939 7.98597 14.2992C9.90453 13.5044 12.0157 13.2964 14.0524 13.7015C16.0892 14.1065 17.9601 15.1064 19.4286 16.5748L19.4905 16.6404L30.7311 29.3342C31.7835 30.3742 33.12 31.0798 34.5724 31.3621C36.0249 31.6443 37.5283 31.4907 38.8937 30.9204C40.259 30.3502 41.4251 29.3889 42.2453 28.1574C43.0655 26.9259 43.5032 25.4794 43.5032 23.9998C43.5032 22.5202 43.0655 21.0736 42.2453 19.8422C41.4251 18.6107 40.259 17.6494 38.8937 17.0792C37.5283 16.5089 36.0249 16.3553 34.5724 16.6375C33.12 16.9198 31.7835 17.6253 30.7311 18.6654L29.1336 20.4692C28.8698 20.7675 28.4983 20.9489 28.1008 20.9733C27.7033 20.9978 27.3123 20.8633 27.0139 20.5995C26.7156 20.3357 26.5342 19.9641 26.5098 19.5666C26.4854 19.1691 26.6198 18.7782 26.8836 18.4798L28.513 16.6404L28.5749 16.5748C30.0433 15.1062 31.9143 14.106 33.9512 13.7008C35.9881 13.2956 38.0994 13.5036 40.0182 14.2983C41.9369 15.0931 43.5768 16.439 44.7306 18.1659C45.8843 19.8928 46.5 21.923 46.4999 23.9998Z" fill="#82BC4F"/>
</svg>
