<svg width="32" height="32" viewBox="0 0 32 32" fill="none" xmlns="http://www.w3.org/2000/svg">
<path d="M3.00031 21.7465L6.01847 19.9498C6.60068 20.9657 7.13073 21.8249 8.40133 21.8249C9.61884 21.8249 10.3869 21.3585 10.3869 19.5328V7.13468H14.0935V19.5841C14.0935 23.3604 11.8433 25.0798 8.56063 25.0798C7.4001 25.1415 6.24776 24.8561 5.25539 24.2609C4.26301 23.6657 3.47618 22.7897 3.00031 21.7465ZM16.1075 21.3547L19.1256 19.6354C19.4612 20.3052 19.9821 20.8683 20.6283 21.2599C21.2746 21.6515 22.0201 21.8557 22.7791 21.8491C24.3152 21.8491 25.2937 21.0935 25.2937 20.0515C25.2937 18.8014 24.2877 18.3583 22.5932 17.626L21.6697 17.2397C18.9957 16.1203 17.2216 14.7135 17.2216 11.7441C17.2216 9.00886 19.3399 6.92571 22.6492 6.92571C23.7214 6.84925 24.7929 7.08512 25.7297 7.60389C26.6666 8.12267 27.4275 8.90137 27.9174 9.84286L25.0311 11.6667C24.8416 11.1993 24.5123 10.7996 24.0868 10.5206C23.6613 10.2415 23.1596 10.0963 22.6482 10.1041C22.4253 10.0819 22.2001 10.1057 21.9871 10.1739C21.774 10.2421 21.5778 10.3533 21.4108 10.5003C21.2439 10.6474 21.1099 10.827 21.0175 11.0278C20.9251 11.2287 20.8763 11.4462 20.8741 11.6667C20.8741 12.7609 21.5625 13.2031 23.1498 13.8804L24.0762 14.2713C27.2271 15.5997 29.0003 16.9543 29.0003 20.0011C29.0003 23.283 26.3794 25.0807 22.8587 25.0807C19.4167 25.0807 17.1932 23.4649 16.1075 21.3547Z" fill="#E2E4E9"/>
</svg>
