<svg width="32" height="32" viewBox="0 0 32 32" fill="none" xmlns="http://www.w3.org/2000/svg">
<path d="M16.748 25.2576C16.5169 25.0532 16.2758 24.8482 16.0454 24.6211C15.8613 24.7912 15.6888 24.9507 15.5062 25.1095C13.2267 27.0745 10.8771 27.8926 9.48424 27.0973C8.13688 26.3362 7.71241 24.0878 8.25166 21.2592C8.30918 20.9525 8.37826 20.6459 8.45889 20.3393C8.217 20.2681 7.98666 20.2026 7.75632 20.1257C4.88825 19.1468 3.00009 17.5569 3.00009 15.9664C3.00009 14.4335 4.76191 12.9455 7.51365 11.9915C7.8218 11.889 8.14689 11.7871 8.48123 11.696C8.40419 11.4005 8.34334 11.1165 8.28556 10.8416C7.70933 7.97028 8.11223 5.67632 9.47115 4.90384C10.8871 4.08578 13.2367 4.96079 15.5963 7.01625C15.7342 7.14084 15.8729 7.27754 16.0223 7.41352C16.2411 7.20919 16.4483 7.00485 16.6671 6.8233C18.9012 4.90099 21.1229 4.09718 22.4818 4.86966C23.8978 5.66422 24.313 8.11766 23.6797 11.1506C23.6451 11.3443 23.6027 11.5259 23.5534 11.7202C23.8415 11.8 24.1289 11.8904 24.3939 11.9815C27.2034 12.9355 29.023 14.4236 28.9999 15.9906C28.9999 17.5918 27.0539 19.171 24.0695 20.1478C23.9085 20.1934 23.7475 20.2503 23.5858 20.2952C23.6551 20.5223 23.7005 20.7494 23.7468 20.9765C24.3453 23.9184 23.8847 26.3262 22.4918 27.1215C22.126 27.325 21.7054 27.4287 21.2785 27.4205C20.002 27.4184 18.3812 26.6416 16.748 25.2576ZM19.0052 21.089C18.3438 22.0399 17.6168 22.9505 16.8289 23.8151C17.0477 24.0287 17.2665 24.2245 17.4852 24.4061C19.385 26.0187 21.1352 26.621 21.9534 26.1554C22.2032 25.9565 22.4073 25.7133 22.5537 25.4403C22.7 25.1672 22.7856 24.8697 22.8054 24.5656C22.9716 23.4384 22.9247 22.2931 22.6667 21.1809C22.632 20.9765 22.5897 20.7722 22.5288 20.5565C21.3687 20.8074 20.1914 20.9853 19.0052 21.089ZM9.35559 21.4528C8.88413 23.8735 9.22925 25.6776 10.0489 26.144C10.3393 26.2561 10.6528 26.3079 10.9673 26.2956C11.2817 26.2833 11.5894 26.2072 11.8685 26.0728C12.9543 25.6511 13.9431 25.0419 14.782 24.2779C14.9546 24.1412 15.1156 23.9824 15.2889 23.8237C14.4837 22.9588 13.7375 22.0483 13.0549 21.0976C11.8732 21.0063 10.6997 20.8398 9.54279 20.5992C9.47115 20.8961 9.41337 21.1794 9.35559 21.4528ZM16.0578 23.0427C16.5647 22.4859 17.0708 21.8729 17.5777 21.1915C17.0708 21.2143 16.5415 21.2257 16.0115 21.2257C15.4815 21.2257 14.987 21.2143 14.4916 21.1915C15.0093 21.8608 15.5285 22.4859 16.0578 23.0427ZM13.6388 11.9573C13.2013 12.5817 12.7752 13.2388 12.3723 13.9337C11.9694 14.6151 11.602 15.3078 11.2669 15.9984C11.6128 16.6798 11.981 17.3725 12.3839 18.0774C12.7868 18.7587 13.2128 19.4301 13.6504 20.0645C14.41 20.1101 15.205 20.1357 16.0108 20.1357C16.8166 20.1357 17.6224 20.1129 18.3943 20.0567C18.8087 19.4323 19.2347 18.7616 19.6384 18.0688C20.0421 17.3761 20.4211 16.672 20.7554 15.9906C20.4211 15.3206 20.0413 14.6279 19.6384 13.9344C19.2355 13.241 18.8095 12.5817 18.3835 11.958C17.6131 11.9011 16.8173 11.8669 16.0115 11.8669C15.2057 11.8669 14.4107 11.9003 13.6388 11.9573ZM9.83938 19.5554C10.6294 19.7222 11.4291 19.8475 12.2344 19.9306C11.9579 19.4992 11.6821 19.067 11.4171 18.6128C11.1636 18.1699 10.9102 17.7271 10.6799 17.2842C10.3463 18.056 10.0697 18.8185 9.83938 19.5554ZM20.6052 18.6014C20.3402 19.0556 20.0752 19.4871 19.811 19.9079C20.6284 19.8132 21.4396 19.6768 22.2407 19.4992C21.9906 18.7325 21.6985 17.978 21.3656 17.2387C21.1237 17.6929 20.8702 18.1472 20.6052 18.6014ZM7.87033 13.0359C5.52149 13.854 4.10556 15.0451 4.10556 15.9778C4.15034 16.2778 4.2588 16.5668 4.42471 16.828C4.59062 17.0892 4.81072 17.3176 5.07237 17.5C5.97106 18.1984 7.00164 18.7374 8.11223 19.0898C8.31945 19.161 8.53824 19.2151 8.75702 19.2835C9.11072 18.1663 9.53752 17.0699 10.0351 16.0006C9.53656 14.9495 9.11349 13.8693 8.76858 12.7668C8.45786 12.8437 8.15845 12.9334 7.87033 13.0359ZM21.9988 15.9778C22.5098 17.0336 22.9472 18.1184 23.3084 19.2258C23.4586 19.1802 23.6081 19.1347 23.746 19.0891C26.3136 18.249 27.906 16.9653 27.9144 15.9657C27.9144 15.0344 26.4407 13.8298 24.0341 13.0124C23.7922 12.9334 23.528 12.8537 23.2637 12.7739C22.9149 13.8652 22.4924 14.9353 21.9988 15.9778ZM20.5944 13.3656C20.8594 13.8198 21.1129 14.2634 21.3425 14.7062C21.6624 13.9825 21.9391 13.243 22.1714 12.4913C21.3893 12.3157 20.5975 12.1792 19.7994 12.0826C20.076 12.502 20.341 12.9227 20.5944 13.3656ZM9.85094 12.482C10.082 13.2089 10.3578 13.9473 10.6799 14.7076C10.911 14.2648 11.1636 13.8219 11.4171 13.3791C11.6705 12.9363 11.9348 12.5048 12.2113 12.084C11.3824 12.1844 10.5997 12.3204 9.85094 12.482ZM17.3928 7.65488C17.1971 7.82504 17.0015 8.00659 16.805 8.18886C17.6046 9.04285 18.3395 9.94683 19.0044 10.8943C20.1762 10.9989 21.3383 11.1811 22.4818 11.4397C22.528 11.2695 22.5589 11.0987 22.5974 10.9285C23.1366 8.3163 22.8046 6.31709 21.9295 5.818C21.7374 5.71836 21.5195 5.66912 21.2993 5.67561C20.3587 5.67134 18.915 6.34842 17.3928 7.65274V7.65488ZM10.0235 5.84648C9.20614 6.31211 8.88336 8.17462 9.36715 10.6281C9.42493 10.8894 9.4827 11.1499 9.55127 11.4226C10.6963 11.1736 11.858 10.9952 13.0287 10.8886C13.696 9.93994 14.4348 9.03587 15.2396 8.18316C15.1133 8.05785 14.9746 7.94465 14.8483 7.83074C13.2459 6.4303 11.7052 5.69127 10.6991 5.69127C10.4627 5.68382 10.2287 5.73758 10.0235 5.84648ZM17.5538 10.7982C17.0789 10.1632 16.5667 9.55286 16.0192 8.96989C15.5016 9.52593 14.9831 10.1396 14.4785 10.7982C14.9854 10.7754 15.4915 10.764 16.01 10.764C16.5285 10.764 17.0469 10.7733 17.5538 10.7982ZM13.7081 16.0234C13.6974 15.7314 13.749 15.4404 13.8601 15.167C13.9712 14.8936 14.1396 14.6431 14.3557 14.4299C14.5718 14.2167 14.8312 14.0451 15.1192 13.9247C15.4072 13.8044 15.718 13.7378 16.0339 13.7287C16.6712 13.7487 17.274 14.0016 17.71 14.4317C18.1459 14.8619 18.3796 15.4343 18.3596 16.0234C18.3802 16.6129 18.1467 17.186 17.7105 17.6166C17.2743 18.0472 16.671 18.3003 16.0331 18.3202C15.7171 18.3111 15.4061 18.2444 15.118 18.1239C14.8299 18.0034 14.5704 17.8315 14.3544 17.6181C14.1383 17.4047 13.97 17.154 13.8591 16.8803C13.7483 16.6066 13.6969 16.3154 13.7081 16.0234Z" fill="#E2E4E9"/>
</svg>
